/vscmnt/brussel_pixiu_data/_data_brussel/112/vsc11236/PredSimResults/SUBJ04mtu3D/worker4.mot
version=1
nRows=11
nColumns=50
inDegrees=yes
endheader
                time	         pelvis_tilt	         pelvis_list	     pelvis_rotation	           pelvis_tx	           pelvis_ty	           pelvis_tz	       hip_flexion_r	     hip_adduction_r	      hip_rotation_r	        knee_angle_r	       ankle_angle_r	         mtp_angle_r	       hip_flexion_l	     hip_adduction_l	      hip_rotation_l	        knee_angle_l	       ankle_angle_l	         mtp_angle_l	    lumbar_extension	      lumbar_bending	     lumbar_rotation	 ercspn_r/activation	 intobl_r/activation	 extobl_r/activation	    abd_r/activation	    add_r/activation	hamstrings_r/activation	bifemsh_r/activation	glut_max_r/activation	iliopsoas_r/activation	rect_fem_r/activation	  vasti_r/activation	gastroc_r/activation	 soleus_r/activation	tib_ant_r/activation	 ercspn_l/activation	 intobl_l/activation	 extobl_l/activation	    abd_l/activation	    add_l/activation	hamstrings_l/activation	bifemsh_l/activation	glut_max_l/activation	iliopsoas_l/activation	rect_fem_l/activation	  vasti_l/activation	gastroc_l/activation	 soleus_l/activation	tib_ant_l/activation	
          0.65179286	         -2.12119007	         -0.60091663	         -8.69462971	          0.61268529	          0.88113612	          0.01172884	        -12.76850562	         -0.35245658	         -7.91093907	         -7.88025073	         12.75502621	         21.08016932	         29.36541080	         -3.76142027	        -10.69801328	        -11.98481672	          4.19916323	          0.23689878	        -13.71105030	          3.46949670	          7.77823940	          0.04193567	          0.01000000	          0.01000000	          0.05436711	          0.01000010	          0.02509346	          0.17584185	          0.01481731	          0.01217290	          0.01000016	          0.01000002	          0.24358754	          0.24777758	          0.01000000	          0.04041433	          0.22420455	          0.01773846	          0.01011477	          0.29517334	          0.06087321	          0.02997851	          0.03251124	          0.15505572	          0.03253203	          0.03130194	          0.01000003	          0.01000003	          0.32051621	
          0.66482872	         -2.21401014	         -0.57584398	         -8.47432514	          0.62827190	          0.87898970	          0.01129860	        -13.46084728	         -0.49247403	         -8.55753476	         -8.38204420	         12.38701751	         22.51739612	         29.21375900	         -3.62661385	        -10.80313775	        -13.32387071	          4.01280832	          0.22339449	        -13.21431468	          2.87649228	          7.88587204	          0.03701801	          0.01000000	          0.01000003	          0.04466336	          0.01000019	          0.02061491	          0.14445661	          0.01217265	          0.01000027	          0.01000003	          0.01000005	          0.20489708	          0.24113982	          0.00999999	          0.03320096	          0.23067199	          0.01457240	          0.02281156	          0.24248917	          0.06136392	          0.02462788	          0.03819033	          0.12738049	          0.02672553	          0.02571507	          0.01217280	          0.01436505	          0.34669776	
          0.67786457	         -2.29253676	         -0.49414913	         -8.20283970	          0.64414208	          0.87707891	          0.01078187	        -14.06987569	         -0.70125340	         -9.24139592	         -9.08702212	         11.93464810	         23.97768854	         29.00416410	         -3.46196736	        -10.92398747	        -14.55187789	          3.60899454	          0.21706691	        -12.69558584	          2.20045444	          7.96199284	          0.04687134	          0.00999999	          0.01000000	          0.03669159	          0.01000006	          0.01693558	          0.11867318	          0.01000002	          0.01481724	          0.01000011	          0.01000003	          0.16832588	          0.22574446	          0.01000000	          0.02838409	          0.18950036	          0.01197144	          0.04086064	          0.23034993	          0.06519768	          0.02023227	          0.03137393	          0.10464489	          0.02195541	          0.08227929	          0.01000014	          0.01180110	          0.37378356	
          0.69090043	         -2.35723628	         -0.37670370	         -7.87955376	          0.66016154	          0.87557825	          0.01014844	        -14.53436301	         -0.96741912	         -9.96092109	        -10.08618513	         11.34815725	         25.47435907	         28.74590914	         -3.26867593	        -11.14495308	        -15.69867005	          3.19625250	          0.19490604	        -12.17755574	          1.47144791	          8.00381676	          0.05497974	          0.00999999	          0.01000000	          0.03014267	          0.01000006	          0.01391318	          0.09749173	          0.01000001	          0.01217268	          0.01000008	          0.01000002	          0.13828212	          0.20584191	          0.01000000	          0.03343249	          0.15567726	          0.01000000	          0.05987266	          0.20763519	          0.06609715	          0.01662120	          0.02577417	          0.08596728	          0.01803668	          0.15030560	          0.01000006	          0.01000002	          0.39879551	
          0.70393629	         -2.40862129	         -0.22409554	         -7.51627964	          0.67623020	          0.87465507	          0.00939479	        -14.79078935	         -1.30613504	        -10.70918255	        -11.47134560	         10.58325084	         27.01725684	         28.38701397	         -3.03511763	        -11.44891428	        -16.71926897	          2.97274535	          0.17201186	        -11.67292879	          0.69648914	          8.01024189	          0.07742337	          0.01000000	          0.01000000	          0.02476263	          0.01000009	          0.01728893	          0.08009085	          0.01000004	          0.01000016	          0.01000006	          0.01239810	          0.11360074	          0.16910209	          0.00999999	          0.03294467	          0.12789109	          0.01000001	          0.09063154	          0.18245831	          0.06598678	          0.01365466	          0.02696639	          0.07062335	          0.01481740	          0.19822000	          0.01000007	          0.01000004	          0.40400020	
          0.71697215	         -2.44800849	         -0.03685951	         -7.12706037	          0.69219023	          0.87447256	          0.00852246	        -14.76967008	         -1.73635762	        -11.47428248	        -13.33458429	          9.60165641	         28.58281254	         27.92509667	         -2.74468619	        -11.75448437	        -17.59618937	          2.95937060	          0.15167629	        -11.19910599	         -0.11815806	          7.98507470	          0.10042190	          0.01000000	          0.01000000	          0.02034286	          0.01000014	          0.05432048	          0.06579579	          0.01000053	          0.01000008	          0.01000002	          0.02574510	          0.09332463	          0.13891978	          0.00999999	          0.03119651	          0.10506436	          0.01000002	          0.11077276	          0.17002827	          0.06706050	          0.01121762	          0.03340399	          0.05801809	          0.01217271	          0.22026663	          0.01000010	          0.01000008	          0.39629059	
          0.73000800	         -2.47597060	          0.17436280	         -6.72358920	          0.70793926	          0.87508611	          0.00754235	        -14.44991048	         -2.26096932	        -12.24470569	        -15.68598382	          8.35829585	         30.12069967	         27.36905985	         -2.39619674	        -11.99131846	        -18.33095899	          3.13742861	          0.14342174	        -10.76681205	         -0.95556818	          7.93279291	          0.10718190	          0.01000002	          0.01000000	          0.01671195	          0.04569574	          0.08068860	          0.05405219	          0.01584148	          0.01000004	          0.01000001	          0.02114999	          0.07666752	          0.11412459	          0.00999999	          0.03154992	          0.08631187	          0.01000004	          0.12173553	          0.16698233	          0.07127479	          0.01216784	          0.02744198	          0.04766269	          0.01000007	          0.23082065	          0.01000004	          0.01000001	          0.37036237	
          0.74304386	         -2.49267415	          0.38534038	         -6.31527107	          0.72340941	          0.87644550	          0.00647294	        -13.80539919	         -2.87018970	        -13.02243186	        -18.55960382	          6.84529590	         31.52901699	         26.71096273	         -2.00587498	        -12.11824334	        -18.89553591	          3.46833932	          0.16840000	        -10.38425207	         -1.78575699	          7.85680208	          0.09799551	          0.01419054	          0.01000000	          0.01372911	          0.12201822	          0.09967542	          0.04440465	          0.01301402	          0.01000003	          0.01000001	          0.01737502	          0.06298346	          0.09375498	          0.00999999	          0.02672546	          0.07090644	          0.01000009	          0.12537596	          0.17380718	          0.07625880	          0.01000057	          0.02529721	          0.03915558	          0.01000001	          0.23673963	          0.01000027	          0.01000031	          0.33678170	
          0.75607972	         -2.49849490	          0.56392913	         -5.90708443	          0.73853714	          0.87844935	          0.00533517	        -12.81274213	         -3.54709995	        -13.80846016	        -21.97976702	          5.08501935	         32.60129567	         25.93112113	         -1.60502103	        -12.13310153	        -19.22974473	          3.82761462	          0.25702720	        -10.06069823	         -2.57060629	          7.75463180	          0.09229440	          0.03134746	          0.01000000	          0.01127866	          0.13222258	          0.08693566	          0.03647907	          0.01069121	          0.01000004	          0.01000000	          0.01427383	          0.05174181	          0.07702106	          0.01468653	          0.02195542	          0.05825065	          0.01000009	          0.12479826	          0.16806884	          0.08171787	          0.01000091	          0.02380366	          0.03216687	          0.01000001	          0.23028865	          0.01000006	          0.01000003	          0.30770343	
          0.76911557	         -2.49287424	          0.67742962	         -5.50155239	          0.75327193	          0.88094487	          0.00414248	        -11.45941809	         -4.28216205	        -14.60654012	        -26.00052219	          3.33485128	         32.73565115	         25.03382907	         -1.23925581	        -12.07190489	        -19.33309927	          4.15586579	          0.40790349	         -9.80429356	         -3.26966416	          7.62000503	          0.07818175	          0.02575250	          0.01000001	          0.00999999	          0.21643749	          0.07141911	          0.02996811	          0.01000001	          0.01000003	          0.01000000	          0.01172616	          0.04250664	          0.06327390	          0.04680282	          0.01803670	          0.04785375	          0.01000009	          0.12372438	          0.17112059	          0.08683658	          0.01000036	          0.03504434	          0.02642555	          0.01000001	          0.21962121	          0.01000005	          0.01000003	          0.28082184	
          0.78215143	         -2.47466158	          0.70173913	         -5.09506322	          0.76757138	          0.88374459	          0.00293203	         -9.75971118	         -5.06257628	        -15.40993243	        -30.61463358	          1.75753164	         31.53761807	         24.04594647	         -0.94813766	        -11.95817330	        -19.25751158	          4.47154983	          0.64642374	         -9.62006412	         -3.85797753	          7.44516307	          0.08165474	          0.02115609	          0.01000002	          0.00999999	          0.28189949	          0.05867190	          0.02461930	          0.01000000	          0.01000005	          0.01000000	          0.00999999	          0.03491981	          0.05198041	          0.10722152	          0.01481742	          0.03931254	          0.01000004	          0.12346660	          0.14057822	          0.08867251	          0.01000017	          0.06166520	          0.02170896	          0.01000001	          0.21057384	          0.01000004	          0.01000003	          0.25618248	
